# xmcd
#
# Track frame offsets:
#	150
#	18810
#	40740
#	58910
#	75892
#	91490
#	105822
#	123432
#	141357
#	152890
#	169117
#	191275
#	207600
#	223595
#	243927
#
# Disc length: 3479 seconds
#
# Revision: 1
# Processed by: cddbd v1.5.1PL2 Copyright (c) Steve Scherf et al.
# Submitted via: audiograbber 1.83.01
#
DISCID=c10d950f
DTITLE=Music Maestro - MM6296
DYEAR=1900
DGENRE=Karaoke
TTITLE0=Gill, Vince - Let's Make Sure We Kiss
TTITLE1=Herndon, Ty - No Mercy
TTITLE2=Chesney, Kenny - What I Need To Do
TTITLE3=Raye, Collin - Couldn't Last A Moment
TTITLE4=Kilgore, Jerry - Look, The
TTITLE5=Adkins, Trace - More
TTITLE6=Tennison, Chalee - Just Because She Lives There
TTITLE7=Minor, Shane - I Think You're Beautiful
TTITLE8=Paisley, Brad - Me Neither
TTITLE9=Travis, Randy - Where Can I Surrender
TTITLE10=Jackson, Alan - Blues Man
TTITLE11=Wilkinsons, The - Jimmy's Got A Girlfriend
TTITLE12=Montgomery, John Michael - Nothing Catches Jesus By Surprise
TTITLE13=McEntire, Reba - I'll Be
TTITLE14=Issacs, Sonya - I've Forgotten How You Feel
EXTD=As Listed In KJ Pro
EXTT0=
EXTT1=
EXTT2=
EXTT3=
EXTT4=
EXTT5=
EXTT6=
EXTT7=
EXTT8=
EXTT9=
EXTT10=
EXTT11=
EXTT12=
EXTT13=
EXTT14=
PLAYORDER=
